<svg width="48" height="48" viewBox="0 0 48 48" fill="none" xmlns="http://www.w3.org/2000/svg">
<g clip-path="url(#clip0_157_2535)">
<path fill-rule="evenodd" clip-rule="evenodd" d="M33.7097 36.8967C34.9418 35.7915 37.2389 33.8371 38.5575 32.7319C38.9822 32.3073 38.8973 31.6266 38.5575 31.0747C37.4088 29.5024 36.0053 28.4397 36.0053 25.5074V15.3948C36.0053 11.2307 36.0053 7.49109 33.0709 4.64456C30.6479 2.30737 26.9899 1.5 23.9279 1.5C17.9742 1.5 11.2982 3.75225 9.89469 11.1457C9.72472 11.9107 10.3203 12.3776 10.8726 12.5049L16.9539 13.1849C17.5069 13.1424 17.8892 12.5049 18.0175 11.953C18.5273 9.40359 20.6537 8.17097 23.0776 8.17097C27.2038 8.17097 26.9899 12.2501 26.9899 15.1823C23.3324 15.6069 18.9528 15.8623 15.508 17.3497C11.5957 19.0492 8.83203 22.5334 8.83203 27.6329C8.83203 34.1767 12.9568 37.4909 18.2724 37.4909C22.737 37.4909 25.1609 36.3856 28.6059 32.8591C29.7543 34.5162 30.3506 35.6639 32.264 37.1512C32.7312 37.4911 33.326 37.2364 33.7097 36.8967ZM21.844 31.1597C19.4626 31.1597 18.0174 29.3752 18.0174 26.6551C18.0174 21.3016 22.4395 20.1539 26.9898 20.1539C26.9898 22.9163 27.2037 25.806 25.8002 28.2274C24.9058 29.842 23.7581 31.1597 21.844 31.1597Z" fill="#D6922D"/>
<path fill-rule="evenodd" clip-rule="evenodd" d="M42.639 39.3603C36.7294 41.8255 30.3068 43.0142 24.4811 43.0142C15.8486 43.0142 7.51353 40.6778 0.752565 36.7692C0.157065 36.3856 -0.26856 37.0239 0.199534 37.4485C6.45069 43.1005 14.7426 46.4997 23.9281 46.4997C30.5206 46.4997 38.1313 44.4591 43.4053 40.5504C44.255 39.9137 43.4904 38.9782 42.639 39.3603ZM39.4498 37.8729C41.1081 37.6606 44.8938 37.1936 45.5735 38.0851C46.2548 38.9357 44.8088 42.4623 44.17 44.077C44 44.5439 44.4249 44.7152 44.8513 44.3741C47.6567 41.9953 48.3806 37.0663 47.8282 36.3431C47.2319 35.6638 42.2992 35.0256 39.3223 37.1512C38.855 37.4908 38.94 37.9154 39.4498 37.8729Z" fill="#D6922D"/>
</g>
<defs>
<clipPath id="clip0_157_2535">
<rect width="48" height="48" fill="white"/>
</clipPath>
</defs>
</svg>
