<svg width="48" height="48" viewBox="0 0 48 48" fill="none" xmlns="http://www.w3.org/2000/svg">
<g clip-path="url(#clip0_157_2510)">
<path d="M10.6378 29.0073L8.967 35.2446L2.86022 35.3738C1.03519 31.9888 0 28.1159 0 24.0003C0 20.0205 0.967875 16.2675 2.6835 12.9629H2.68481L8.12156 13.9596L10.5032 19.3638C10.0047 20.817 9.73303 22.377 9.73303 24.0003C9.73322 25.762 10.0523 27.45 10.6378 29.0073Z" fill="#FBBB00"/>
<path d="M47.5809 19.5166C47.8565 20.9684 48.0002 22.4678 48.0002 24.0001C48.0002 25.7184 47.8196 27.3944 47.4754 29.0111C46.3071 34.5127 43.2543 39.3166 39.0253 42.7162L39.024 42.7148L32.1761 42.3654L31.207 36.3153C34.0131 34.6696 36.2061 32.0942 37.3613 29.0111H24.5278V19.5166H37.5485H47.5809Z" fill="#518EF8"/>
<path d="M39.0238 42.7145L39.0252 42.7158C34.9123 46.0217 29.6876 47.9997 24.0001 47.9997C14.8604 47.9997 6.91401 42.8912 2.86035 35.3734L10.6379 29.0068C12.6647 34.416 17.8828 38.2666 24.0001 38.2666C26.6295 38.2666 29.0929 37.5558 31.2067 36.3149L39.0238 42.7145Z" fill="#28B446"/>
<path d="M39.3192 5.52525L31.5443 11.8905C29.3566 10.5231 26.7706 9.73312 24.0001 9.73312C17.7443 9.73312 12.4286 13.7603 10.5034 19.3635L2.68491 12.9626H2.68359C6.67791 5.26153 14.7245 0 24.0001 0C29.8234 0 35.1627 2.07431 39.3192 5.52525Z" fill="#F14336"/>
</g>
<defs>
<clipPath id="clip0_157_2510">
<rect width="48" height="48" fill="white"/>
</clipPath>
</defs>
</svg>
