<svg width="48" height="48" viewBox="0 0 48 48" fill="none" xmlns="http://www.w3.org/2000/svg">
<g clip-path="url(#clip0_157_2545)">
<path d="M40.2071 12.4012C40.2883 11.7408 40.3308 11.0683 40.3308 10.3859C40.3308 4.65 35.6809 0 29.9449 0H12.5878C11.496 0 10.5639 0.788437 10.3827 1.86506L3.98712 39.8783C3.75762 41.2424 4.80912 42.4854 6.19222 42.4854H12.5401C13.6319 42.4854 14.5816 41.6976 14.7627 40.6208C14.7627 40.6208 14.7732 40.5578 14.7924 40.4441H14.7925L13.9078 45.7022C13.7057 46.9043 14.6324 48 15.8515 48H21.4049C22.3673 48 23.1889 47.305 23.3485 46.3561L24.9262 36.9792C25.1982 35.3628 26.5976 34.1792 28.2366 34.1792H29.6955C37.6202 34.1792 44.0443 27.755 44.0443 19.8304C44.0443 16.7639 42.5286 14.0533 40.2071 12.4012Z" fill="#002987"/>
<path d="M40.2073 12.4014C39.2141 20.4806 32.3282 26.7367 23.9805 26.7367H19.1369C18.0437 26.7367 17.0995 27.4648 16.8034 28.4944L13.9082 45.7021C13.706 46.9044 14.6327 48.0001 15.8517 48.0001H21.4052C22.3675 48.0001 23.1891 47.3051 23.3487 46.3562L24.9264 36.9793C25.1984 35.3629 26.5978 34.1793 28.2368 34.1793H29.6958C37.6204 34.1793 44.0446 27.7551 44.0446 19.8305C44.0446 16.764 42.5288 14.0534 40.2073 12.4014Z" fill="#0085CC"/>
<path d="M19.1368 26.7365H23.9804C32.3282 26.7365 39.2142 20.4804 40.2073 12.4013C38.7178 11.3413 36.8975 10.7158 34.9301 10.7158H22.2879C20.8485 10.7158 19.6196 11.7552 19.3807 13.1746L16.8032 28.4941C17.0994 27.4645 18.0436 26.7365 19.1368 26.7365Z" fill="#00186A"/>
</g>
<defs>
<clipPath id="clip0_157_2545">
<rect width="48" height="48" fill="white"/>
</clipPath>
</defs>
</svg>
