<svg width="48" height="48" viewBox="0 0 48 48" fill="none" xmlns="http://www.w3.org/2000/svg">
<g clip-path="url(#clip0_157_2526)">
<rect width="48" height="48" rx="6" fill="white"/>
<path d="M25.6049 23.1807L36.4067 38.631H31.9736L23.1592 26.0235V26.0227L21.8651 24.172L11.5684 9.44336H16.0014L24.3109 21.3299L25.6049 23.1807Z" fill="black"/>
<path d="M42.8135 0H5.1865C2.32215 0 0 2.32215 0 5.1865V42.8135C0 45.6779 2.32215 48 5.1865 48H42.8135C45.6779 48 48 45.6779 48 42.8135V5.1865C48 2.32215 45.6779 0 42.8135 0ZM30.6159 40.7049L21.6962 27.7234L10.5287 40.7049H7.64245L20.4147 25.859L7.64245 7.27042H17.3841L25.8304 19.563L36.4053 7.27042H39.2915L27.1124 21.4279H27.1116L40.3576 40.7049H30.6159Z" fill="black"/>
</g>
<defs>
<clipPath id="clip0_157_2526">
<rect width="48" height="48" rx="6" fill="white"/>
</clipPath>
</defs>
</svg>
