<svg width="36" height="36" viewBox="0 0 36 36" fill="none" xmlns="http://www.w3.org/2000/svg">
<g clip-path="url(#clip0_157_2864)">
<path d="M35.7761 17.4597L26.5883 8.27189C26.3026 7.98619 25.7971 7.98619 25.5114 8.27189L23.5195 10.2638C23.222 10.5613 23.222 11.0436 23.5195 11.3411L30.1771 17.998L23.5199 24.656C23.2224 24.9535 23.2224 25.4357 23.5199 25.7333L25.5118 27.7252C25.6547 27.868 25.8486 27.9488 26.0505 27.9488C26.252 27.9488 26.4463 27.868 26.5891 27.7252L35.7761 18.5377C36.0737 18.2399 36.0737 17.7572 35.7761 17.4597Z" fill="#A8FF53"/>
<path d="M12.4784 24.6563L5.82192 17.9991L12.4795 11.3422C12.6224 11.1994 12.7028 11.0059 12.7028 10.8036C12.7028 10.6017 12.6228 10.4078 12.4795 10.2649L10.4876 8.27303C10.3448 8.13018 10.1509 8.0498 9.94898 8.0498C9.74709 8.0498 9.55319 8.13018 9.41034 8.27303L0.222157 17.4601C-0.0753544 17.7576 -0.0753544 18.2399 0.222157 18.5377L9.40996 27.7252C9.55281 27.868 9.74671 27.9488 9.9486 27.9488C10.1505 27.9488 10.3444 27.868 10.4872 27.7252L12.4792 25.7332C12.7767 25.4361 12.7767 24.9539 12.4784 24.6563Z" fill="#A8FF53"/>
<path d="M23.2241 5.18119C23.1273 5.00367 22.9643 4.87187 22.7708 4.81473L21.156 4.33817C20.7529 4.21856 20.3286 4.44979 20.2097 4.8532L12.7133 30.2399C12.6561 30.4338 12.6782 30.6422 12.7746 30.8193C12.871 30.9972 13.0344 31.1287 13.2279 31.1862L14.8427 31.6627C14.9147 31.6841 14.9875 31.6943 15.0587 31.6943C15.3874 31.6943 15.691 31.4795 15.789 31.1477L23.2854 5.76059C23.3425 5.56669 23.3208 5.35832 23.2241 5.18119Z" fill="#A8FF53"/>
</g>
<defs>
<clipPath id="clip0_157_2864">
<rect width="36" height="36" fill="white"/>
</clipPath>
</defs>
</svg>
