<svg width="32" height="32" viewBox="0 0 32 32" fill="none" xmlns="http://www.w3.org/2000/svg">
<path d="M29.7496 3.4997C29.6696 3.45468 23.7846 0.199706 16.2446 3.29471C16.0496 3.7147 15.9096 4.13971 15.8096 4.54471C15.3946 6.22471 15.6496 7.64469 15.6546 7.66471C15.7656 8.3174 14.8096 8.49521 14.6746 7.85469C14.6596 7.7797 14.4446 6.63471 14.6696 5.13471C14.7296 4.73468 14.8196 4.3147 14.9546 3.8797C12.8396 4.92969 10.6146 6.5047 8.36963 8.78971C8.29465 8.86969 8.24463 8.9697 8.22964 9.07969L7.69964 13.4097C7.37463 12.9247 7.03964 12.2597 6.96963 11.4997C6.94651 11.0904 6.3999 10.8921 6.11962 11.1897C6.06463 11.2397 1.06463 16.3297 3.97964 23.1347C4.18463 22.7547 4.39462 22.3847 4.61963 22.0147C9.28964 14.3197 18.5246 8.41971 19.0346 8.1047C19.5859 7.75754 20.1155 8.58697 19.5696 8.94972C18.8997 9.15927 5.72167 18.5248 3.57485 26.6549C3.26962 27.6647 3.06463 28.6897 2.99463 29.7247C2.97236 30.0108 3.20701 30.2635 3.49463 30.2597C3.75464 30.2597 3.97464 30.0547 3.98962 29.7947C4.12463 27.8147 4.78964 25.8497 5.77963 23.9697C7.64402 24.2929 9.93104 24.3257 11.8846 23.5297C12.3153 23.3632 12.2831 22.6975 11.8296 22.5847C11.8146 22.5797 10.5896 22.2197 10.0746 21.3347C11.1422 21.7155 13.2648 22.0728 15.3946 21.0747C15.3946 21.0747 20.9546 16.5647 20.9546 16.5647C21.1296 16.4247 21.1896 16.1797 21.0946 15.9747C20.9996 15.7647 20.7796 15.6497 20.5596 15.6847C20.5446 15.6847 19.3946 15.8597 18.2446 14.9997C19.4446 14.9797 21.2346 14.8147 22.3646 14.1247C23.5147 13.4247 25.8246 10.9997 27.6496 8.39968C26.7218 8.60452 23.9132 8.34149 23.7997 8.2496C23.1554 8.11872 23.3582 7.14983 23.9947 7.26968C24.0196 7.27468 25.5346 7.56469 27.0896 7.4497C27.5447 7.41469 28.0046 7.34469 28.4296 7.21969C29.1146 6.12969 29.6697 5.0447 29.9746 4.08468C30.0496 3.85967 29.9546 3.61969 29.7496 3.4997Z" fill="#BE6895"/>
</svg>
