<svg width="27" height="26" viewBox="0 0 27 26" fill="none" xmlns="http://www.w3.org/2000/svg">
<rect x="0.5" width="26" height="26" rx="13" fill="#A8FF53"/>
<path d="M20.2319 8.2958C20.139 8.20207 20.0284 8.12768 19.9065 8.07691C19.7846 8.02614 19.6539 8 19.5219 8C19.3899 8 19.2592 8.02614 19.1373 8.07691C19.0155 8.12768 18.9049 8.20207 18.8119 8.2958L11.3619 15.7558L8.23192 12.6158C8.1354 12.5226 8.02146 12.4492 7.8966 12.4C7.77175 12.3508 7.63843 12.3267 7.50424 12.329C7.37006 12.3314 7.23765 12.3601 7.11458 12.4136C6.9915 12.4671 6.88016 12.5443 6.78692 12.6408C6.69368 12.7373 6.62037 12.8513 6.57117 12.9761C6.52196 13.101 6.49783 13.2343 6.50015 13.3685C6.50247 13.5027 6.5312 13.6351 6.5847 13.7581C6.63819 13.8812 6.7154 13.9926 6.81192 14.0858L10.6519 17.9258C10.7449 18.0195 10.8555 18.0939 10.9773 18.1447C11.0992 18.1955 11.2299 18.2216 11.3619 18.2216C11.4939 18.2216 11.6246 18.1955 11.7465 18.1447C11.8684 18.0939 11.979 18.0195 12.0719 17.9258L20.2319 9.7658C20.3334 9.67216 20.4144 9.5585 20.4698 9.432C20.5252 9.30551 20.5539 9.1689 20.5539 9.0308C20.5539 8.8927 20.5252 8.75609 20.4698 8.62959C20.4144 8.50309 20.3334 8.38944 20.2319 8.2958Z" fill="#1F1F24"/>
</svg>
