<svg width="66" height="65" viewBox="0 0 66 65" fill="none" xmlns="http://www.w3.org/2000/svg">
<path d="M63.8249 41.9334L34.2589 1.97939C34.0912 1.75862 33.8747 1.57962 33.6263 1.45639C33.378 1.33316 33.1045 1.26904 32.8272 1.26904C32.55 1.26904 32.2765 1.33316 32.0281 1.45639C31.7797 1.57962 31.5632 1.75862 31.3955 1.97939L1.82953 41.9334C1.68705 42.1254 1.58588 42.3449 1.5324 42.5779C1.47892 42.8109 1.47428 43.0525 1.51878 43.2874C1.56474 43.5334 1.66152 43.767 1.80294 43.9734C1.94436 44.1798 2.1273 44.3544 2.34006 44.4861L31.906 63.5752C32.1872 63.7667 32.5203 63.8674 32.8605 63.8638C33.208 63.8705 33.5491 63.7697 33.8372 63.5752L63.3588 44.4861C63.5608 44.3524 63.7338 44.1793 63.8673 43.9772C64.0008 43.775 64.0921 43.548 64.1356 43.3096C64.1834 43.0713 64.1803 42.8256 64.1268 42.5884C64.0733 42.3513 63.9704 42.1282 63.8249 41.9334ZM34.5919 58.8029V8.32765L59.8295 42.5106L34.5919 58.8029Z" fill="#A8FF53"/>
</svg>
