<svg width="35" height="34" viewBox="0 0 35 34" fill="none" xmlns="http://www.w3.org/2000/svg">
<path d="M17.5006 23.4534L16.5072 25.5812C16.3757 25.8626 16.1126 26.0401 15.8259 26.0755V26.0785L13.501 26.3648L15.2128 27.9625C15.4401 28.1736 15.5288 28.4786 15.4746 28.7627L15.028 31.0679L17.078 29.9321C17.3537 29.7791 17.6771 29.7918 17.9323 29.9378L19.9727 31.0679L19.5257 28.7627C19.4658 28.4484 19.5829 28.1417 19.8067 27.9446L21.4997 26.3648L19.1748 26.0785C18.8396 26.0375 18.5717 25.8111 18.4624 25.5144L17.5006 23.4534ZM17.5006 0.398438C20.1366 0.398438 21.841 2.51357 21.9113 4.72223C21.952 6.01403 21.4341 7.33818 20.2166 8.29042C22.784 8.9809 24.8424 10.68 24.8424 13.4279V16.6819C24.8424 17.1635 24.4521 17.5538 23.9705 17.5538H11.0302C10.549 17.5538 10.1583 17.1635 10.1583 16.6819V13.4279C10.1583 10.6804 12.2171 8.9809 14.7841 8.29042C13.5937 7.35959 13.0719 6.07259 13.0876 4.80832C13.1156 2.56864 14.83 0.398438 17.5006 0.398438ZM17.5486 2.14036C16.1668 2.12813 14.8309 3.19706 14.8309 4.81181C14.8309 6.38506 16.0986 7.44 17.4416 7.48195C18.9715 7.53003 20.2192 6.24434 20.1685 4.72266C20.1218 3.31243 18.9672 2.15304 17.5486 2.14036ZM23.0987 15.8101V13.4279C23.0987 8.43333 11.902 8.43333 11.902 13.4279V15.8101H23.0987ZM6.59407 19.2052L7.72506 21.6284L10.383 21.9558C11.1455 22.0493 11.4126 22.9814 10.8348 23.4906L8.9146 25.2823L9.42503 27.9122C9.56094 28.6202 8.80316 29.2224 8.10919 28.8138L5.80745 27.539L3.46682 28.8352C2.81873 29.1949 2.05396 28.6285 2.19118 27.9127L2.18987 27.9122L2.7003 25.2823L0.744674 23.4573C0.201031 22.9508 0.505628 22.0458 1.23194 21.9575L1.2315 21.9558L3.88941 21.6284L5.02083 19.2052C5.33329 18.5362 6.28467 18.5436 6.59407 19.2052ZM5.80745 21.6263C4.9461 23.4718 5.31406 23.2091 3.29463 23.4578C4.76824 24.8326 4.64063 24.4179 4.25387 26.4128C6.01984 25.4348 5.58501 25.4291 7.36103 26.4128C6.97602 24.4293 6.83792 24.8409 8.31983 23.4578C6.42626 23.2244 6.69458 23.5273 5.80745 21.6263ZM29.9803 19.2052L31.1113 21.6284L33.7692 21.9558C34.5318 22.0493 34.7983 22.9814 34.2206 23.4906L32.3008 25.2823L32.8108 27.9122C32.9472 28.6202 32.1894 29.2224 31.495 28.8138L29.1937 27.539L26.853 28.8352C26.2045 29.1949 25.4397 28.6285 25.5774 27.9127L25.5761 27.9122L26.0865 25.2823L24.1309 23.4573C23.5873 22.9508 23.8914 22.0458 24.6182 21.9575L24.6177 21.9558L27.2756 21.6284L28.4071 19.2052C28.7195 18.5362 29.6713 18.5436 29.9803 19.2052ZM29.1937 21.6263C28.3323 23.4718 28.7003 23.2091 26.6809 23.4578C28.1545 24.8326 28.0269 24.4179 27.6397 26.4128C29.4056 25.4348 28.9712 25.4291 30.7468 26.4128C30.3622 24.4293 30.2237 24.8409 31.7061 23.4578C29.8125 23.2244 30.0808 23.5273 29.1937 21.6263ZM15.1385 24.4074L16.7135 21.0324C17.0225 20.3707 17.9743 20.3629 18.2872 21.0324L19.8626 24.4074L23.5628 24.8628V24.8645C24.2891 24.9528 24.5937 25.8578 24.0501 26.3648L21.3266 28.906L22.0367 32.5673L22.0354 32.5677C22.1727 33.2835 21.4079 33.8499 20.7598 33.4902L17.5006 31.6849L14.2798 33.4688C13.5854 33.8774 12.8276 33.2752 12.9639 32.5673L13.6741 28.906L10.9865 26.3976C10.4087 25.8884 10.6753 24.9563 11.4379 24.8628L15.1385 24.4074Z" fill="url(#paint0_linear_41_469)"/>
<defs>
<linearGradient id="paint0_linear_41_469" x1="0.467285" y1="22.1522" x2="34.962" y2="20.9106" gradientUnits="userSpaceOnUse">
<stop stop-color="#6D4DF2"/>
<stop offset="1" stop-color="#8C71FF"/>
</linearGradient>
</defs>
</svg>
