<svg width="42" height="34" viewBox="0 0 42 34" fill="none" xmlns="http://www.w3.org/2000/svg">
<path d="M0.360401 24.8253L3.61353 21.5721V10.4133L1.4897 9.64758C1.00215 9.47172 0.677013 9.00935 0.676601 8.49096C0.676193 7.97274 1.00068 7.50972 1.48806 7.33329L20.9194 0.29617C21.19 0.198152 21.4867 0.198152 21.7573 0.29617L41.1885 7.33329C41.674 7.50914 41.998 7.9693 42 8.48563C42.0018 9.00197 41.6812 9.4645 41.1971 9.64389L34.0258 12.3004V20.4089C34.0258 20.6605 33.9487 20.9062 33.8048 21.1126C33.7256 21.2261 32.9759 22.25 31.0562 23.2162C28.631 24.4371 25.4501 25.0561 21.6021 25.0561C17.7568 25.0561 14.5599 24.4384 12.1001 23.2199C10.1615 22.2597 9.38675 21.2464 9.30473 21.1341C9.15118 20.9236 9.06842 20.6697 9.06842 20.409V12.3798L6.07415 11.3003V21.5721L9.32736 24.8253C9.55809 25.056 9.68777 25.3689 9.68777 25.6952C9.68777 26.0215 9.55818 26.3345 9.32736 26.5652L6.07415 29.8183V32.5478C6.07415 33.2273 5.52328 33.7781 4.8438 33.7781C4.16432 33.7781 3.61345 33.2273 3.61345 32.5478V29.8183L0.360317 26.5652C-0.120174 26.0848 -0.120174 25.3057 0.360401 24.8253ZM21.3383 2.76155L5.52738 8.48752L21.5963 14.2808L37.1925 8.50319L21.3383 2.76155ZM11.5292 19.9185C15.7353 23.7033 28.2338 23.2693 31.5651 19.9309V13.212L22.0295 16.7444C21.8782 16.7684 21.7353 16.8989 21.1848 16.7482L11.5291 13.2671L11.5292 19.9185ZM4.84388 27.5688L6.71754 25.6952L4.84388 23.8216L2.9703 25.6952L4.84388 27.5688Z" fill="url(#paint0_linear_41_365)"/>
<defs>
<linearGradient id="paint0_linear_41_365" x1="42" y1="22.2073" x2="-0.502392" y2="20.341" gradientUnits="userSpaceOnUse">
<stop stop-color="#6D4DF2"/>
<stop offset="1" stop-color="#8C71FF"/>
</linearGradient>
</defs>
</svg>
