<svg width="39" height="40" viewBox="0 0 39 40" fill="none" xmlns="http://www.w3.org/2000/svg">
<g clip-path="url(#clip0_60_1045)">
<path d="M5.7666 12.5739C5.54722 12.5352 5.32366 12.5156 5.10215 12.5156C3.25215 12.5156 1.67607 13.8394 1.35448 15.6633L0.0582539 23.0147C-0.306458 25.0829 1.07949 27.0621 3.14765 27.4269C3.36702 27.4656 3.59059 27.4851 3.81209 27.4851C5.66194 27.4851 7.23817 26.1613 7.55977 24.3375L8.85606 16.986C9.22062 14.9178 7.83475 12.9386 5.7666 12.5739Z" fill="white"/>
<path d="M16.3902 9.19792C16.1708 9.15922 15.9473 9.13965 15.7258 9.13965C13.8759 9.13965 12.2997 10.4634 11.9782 12.2873L9.49146 26.3901C9.31482 27.3919 9.53892 28.4027 10.1224 29.236C10.7059 30.0692 11.579 30.6255 12.5809 30.8023C12.8002 30.841 13.0238 30.8605 13.2453 30.8605C15.0952 30.8605 16.6714 29.5367 16.993 27.7129L19.4797 13.61C19.8443 11.5418 18.4584 9.56263 16.3902 9.19792Z" fill="white"/>
<path d="M29.473 6.82577C28.8894 5.99245 28.0163 5.43624 27.0146 5.25952C26.7951 5.22082 26.5715 5.20117 26.3499 5.20117C24.5001 5.20117 22.924 6.52497 22.6024 8.34891L18.7268 30.3282C18.5502 31.3301 18.7743 32.3408 19.3578 33.1741C19.9413 34.0074 20.8144 34.5636 21.8161 34.7404C22.0355 34.7791 22.2591 34.7987 22.4807 34.7987C24.3307 34.7987 25.9067 33.4748 26.2283 31.651L30.1039 9.67164C30.2805 8.66982 30.0565 7.6591 29.473 6.82577Z" fill="white"/>
<path d="M35.8526 12.5739C35.6332 12.5352 35.4097 12.5156 35.1882 12.5156C33.3382 12.5156 31.7621 13.8394 31.4405 15.6633L30.1442 23.0147C29.7795 25.0829 31.1654 27.0621 33.2336 27.4269C33.453 27.4656 33.6765 27.4851 33.898 27.4851C35.7479 27.4851 37.3241 26.1613 37.6457 24.3375L38.942 16.986C39.3067 14.9178 37.9208 12.9386 35.8526 12.5739Z" fill="white"/>
</g>
<defs>
<clipPath id="clip0_60_1045">
<rect width="39" height="39" fill="white" transform="translate(0 0.5)"/>
</clipPath>
</defs>
</svg>
