<svg width="39" height="39" viewBox="0 0 39 39" fill="none" xmlns="http://www.w3.org/2000/svg">
<g clip-path="url(#clip0_60_1739)">
<path d="M5.7666 12.0739C5.54722 12.0352 5.32366 12.0156 5.10215 12.0156C3.25215 12.0156 1.67607 13.3394 1.35448 15.1633L0.0582539 22.5147C-0.306458 24.5829 1.07949 26.5621 3.14765 26.9269C3.36702 26.9656 3.59059 26.9851 3.81209 26.9851C5.66194 26.9851 7.23817 25.6613 7.55977 23.8375L8.85606 16.486C9.22062 14.4178 7.83475 12.4386 5.7666 12.0739Z" fill="url(#paint0_linear_60_1739)"/>
<path d="M16.3902 8.69694C16.1708 8.65825 15.9473 8.63867 15.7258 8.63867C13.8759 8.63867 12.2997 9.96247 11.9782 11.7863L9.49146 25.8892C9.31482 26.891 9.53892 27.9017 10.1224 28.735C10.7059 29.5683 11.579 30.1246 12.5809 30.3013C12.8002 30.34 13.0238 30.3595 13.2453 30.3595C15.0952 30.3595 16.6714 29.0357 16.993 27.2119L19.4797 13.1091C19.8443 11.0408 18.4584 9.06166 16.3902 8.69694Z" fill="url(#paint1_linear_60_1739)"/>
<path d="M29.473 6.32577C28.8894 5.49245 28.0163 4.93624 27.0146 4.75952C26.7951 4.72082 26.5715 4.70117 26.3499 4.70117C24.5001 4.70117 22.924 6.02497 22.6024 7.84891L18.7268 29.8282C18.5502 30.8301 18.7743 31.8408 19.3578 32.6741C19.9413 33.5074 20.8144 34.0636 21.8161 34.2404C22.0355 34.2791 22.2591 34.2987 22.4807 34.2987C24.3307 34.2987 25.9067 32.9748 26.2283 31.151L30.1039 9.17164C30.2805 8.16982 30.0565 7.1591 29.473 6.32577Z" fill="url(#paint2_linear_60_1739)"/>
<path d="M35.8526 12.0739C35.6332 12.0352 35.4097 12.0156 35.1882 12.0156C33.3382 12.0156 31.7621 13.3394 31.4405 15.1633L30.1442 22.5147C29.7795 24.5829 31.1654 26.5621 33.2336 26.9269C33.453 26.9656 33.6765 26.9851 33.898 26.9851C35.7479 26.9851 37.3241 25.6613 37.6457 23.8375L38.942 16.486C39.3067 14.4178 37.9208 12.4386 35.8526 12.0739Z" fill="url(#paint3_linear_60_1739)"/>
</g>
<defs>
<linearGradient id="paint0_linear_60_1739" x1="-4.66152e-09" y1="21.8232" x2="9.03435" y2="21.6345" gradientUnits="userSpaceOnUse">
<stop stop-color="#6D4DF2"/>
<stop offset="1" stop-color="#8C71FF"/>
</linearGradient>
<linearGradient id="paint1_linear_60_1739" x1="9.43262" y1="22.8696" x2="19.6758" y2="22.7024" gradientUnits="userSpaceOnUse">
<stop stop-color="#6D4DF2"/>
<stop offset="1" stop-color="#8C71FF"/>
</linearGradient>
<linearGradient id="paint2_linear_60_1739" x1="18.668" y1="24.0927" x2="30.3205" y2="23.9339" gradientUnits="userSpaceOnUse">
<stop stop-color="#6D4DF2"/>
<stop offset="1" stop-color="#8C71FF"/>
</linearGradient>
<linearGradient id="paint3_linear_60_1739" x1="30.0859" y1="21.8232" x2="39.1203" y2="21.6345" gradientUnits="userSpaceOnUse">
<stop stop-color="#6D4DF2"/>
<stop offset="1" stop-color="#8C71FF"/>
</linearGradient>
<clipPath id="clip0_60_1739">
<rect width="39" height="39" fill="white"/>
</clipPath>
</defs>
</svg>
