<svg width="16" height="22" viewBox="0 0 16 22" fill="none" xmlns="http://www.w3.org/2000/svg">
<path d="M13 14.2454V21.1169C13 21.393 12.7761 21.617 12.5 21.617C12.4094 21.617 12.3205 21.5923 12.2428 21.5457L8 19L3.75725 21.5457C3.52046 21.6877 3.21333 21.6109 3.07125 21.3742C3.02463 21.2964 3 21.2075 3 21.1169V14.2454C1.17107 12.7793 0 10.5264 0 8C0 3.58172 3.58172 0 8 0C12.4183 0 16 3.58172 16 8C16 10.5264 14.8289 12.7793 13 14.2454ZM5 15.4185V18.4676L8 16.6676L11 18.4676V15.4185C10.0736 15.7935 9.0609 16 8 16C6.9391 16 5.92643 15.7935 5 15.4185ZM8 14C11.3137 14 14 11.3137 14 8C14 4.68629 11.3137 2 8 2C4.68629 2 2 4.68629 2 8C2 11.3137 4.68629 14 8 14Z" fill="#A8FF53"/>
</svg>
