<svg width="22" height="20" viewBox="0 0 22 20" fill="none" xmlns="http://www.w3.org/2000/svg">
<path d="M2.16113 2.46924C4.58508 0.0452881 8.44716 -0.0640118 11.0008 2.14134C13.5528 -0.0640118 17.4149 0.0452881 19.8388 2.46924C22.2584 4.88885 22.3716 8.74149 20.1785 11.2952L12.4142 19.0863C11.6686 19.8318 10.4809 19.8657 9.6952 19.1879L9.5858 19.0863L1.82141 11.2952C-0.371718 8.74149 -0.258478 4.88885 2.16113 2.46924ZM3.57534 3.88345C1.86819 5.5906 1.81942 8.32809 3.42902 10.0942L3.57534 10.2474L11 17.672L16.3026 12.368L12.7677 8.83319L11.7071 9.89389C10.5355 11.0654 8.636 11.0654 7.46443 9.89389C6.29286 8.72229 6.29286 6.82279 7.46443 5.65122L9.5656 3.54872C7.85292 2.17762 5.37076 2.24042 3.7286 3.73712L3.57534 3.88345ZM12.0606 6.71188C12.4511 6.32135 13.0843 6.32135 13.4748 6.71188L17.7168 10.9538L18.4246 10.2474C20.1819 8.49009 20.1819 5.64081 18.4246 3.88345C16.7174 2.1763 13.9799 2.12753 12.2139 3.73712L12.0606 3.88345L8.87864 7.06543C8.51601 7.42806 8.49011 7.99991 8.80094 8.39239L8.87864 8.47969C9.2413 8.84229 9.8131 8.86819 10.2056 8.55739L10.2929 8.47969L12.0606 6.71188Z" fill="#A8FF53"/>
</svg>
