<svg width="43" height="27" viewBox="0 0 43 27" fill="none" xmlns="http://www.w3.org/2000/svg">
<path d="M11.4404 9.242C12.8373 3.62494 16.3295 0.816406 21.917 0.816406C30.2982 0.816406 31.3459 7.1356 35.5365 8.1888C38.3302 8.89093 40.7748 7.83773 42.8701 5.0292C41.4732 10.6463 37.981 13.4548 32.3935 13.4548C24.0123 13.4548 22.9646 7.1356 18.774 6.0824C15.9803 5.38027 13.5357 6.43347 11.4404 9.242ZM0.963867 21.8804C2.36074 16.2633 5.85293 13.4548 11.4404 13.4548C19.8217 13.4548 20.8693 19.774 25.0599 20.8272C27.8537 21.5293 30.2982 20.4761 32.3935 17.6676C30.9967 23.2846 27.5045 26.0932 21.917 26.0932C13.5357 26.0932 12.4881 19.774 8.29746 18.7208C5.50371 18.0187 3.05918 19.0719 0.963867 21.8804Z" fill="#44A8B3"/>
</svg>
