<svg width="91" height="67" viewBox="0 0 91 67" fill="none" xmlns="http://www.w3.org/2000/svg">
<path d="M73.0007 33.3711C73.0007 29.7133 68.4388 26.2468 61.4445 24.0971C63.0586 16.939 62.3412 11.2441 59.1804 9.42082C58.4518 8.99314 57.5999 8.79055 56.6696 8.79055V11.3004C57.1852 11.3004 57.5999 11.4017 57.9474 11.593C59.4718 12.4709 60.1331 15.8136 59.6175 20.1129C59.4942 21.1709 59.2924 22.2851 59.0459 23.4218C56.8489 22.8816 54.4503 22.4652 51.9283 22.1951C50.4151 20.1129 48.8459 18.2221 47.2655 16.5676C50.9195 13.1574 54.3494 11.2891 56.6808 11.2891V8.7793C53.5984 8.7793 49.5633 10.9852 45.4833 14.8119C41.4033 11.0078 37.3682 8.82432 34.2858 8.82432V11.3341C36.606 11.3341 40.0471 13.1912 43.7011 16.5789C42.1319 18.2334 40.5627 20.1129 39.0719 22.1951C36.5388 22.4652 34.1401 22.8816 31.9432 23.4331C31.6854 22.3076 31.4948 21.2159 31.3603 20.1692C30.8335 15.8698 31.4836 12.5272 32.9968 11.638C33.3331 11.4354 33.7702 11.3454 34.2858 11.3454V8.83557C33.3443 8.83557 32.4924 9.03816 31.7526 9.46584C28.603 11.2891 27.8968 16.9728 29.5221 24.1084C22.5503 26.2693 18.0107 29.7245 18.0107 33.3711C18.0107 37.0289 22.5727 40.4954 29.5669 42.6451C27.9529 49.8032 28.6702 55.4981 31.8311 57.3214C32.5597 57.7491 33.4115 57.9517 34.3531 57.9517C37.4355 57.9517 41.4706 55.7457 45.5506 51.9191C49.6305 55.7232 53.6657 57.9066 56.7481 57.9066C57.6896 57.9066 58.5415 57.704 59.2812 57.2764C62.4309 55.4531 63.137 49.7694 61.5118 42.6338C68.4612 40.4842 73.0007 37.0177 73.0007 33.3711ZM58.407 25.8641C57.9922 27.316 57.4766 28.8129 56.8938 30.3098C56.4342 29.4094 55.9523 28.509 55.4254 27.6086C54.9098 26.7082 54.3606 25.8304 53.8114 24.975C55.403 25.2113 56.9386 25.504 58.407 25.8641ZM53.2734 37.8505C52.3991 39.3699 51.5024 40.8105 50.5721 42.1499C48.902 42.2962 47.2095 42.375 45.5057 42.375C43.8132 42.375 42.1207 42.2962 40.4618 42.1611C39.5315 40.8218 38.6236 39.3924 37.7493 37.8843C36.8974 36.4099 36.124 34.913 35.4179 33.4049C36.1128 31.8967 36.8974 30.3886 37.7381 28.9142C38.6124 27.3948 39.5091 25.9542 40.4394 24.6148C42.1095 24.4685 43.802 24.3897 45.5057 24.3897C47.1982 24.3897 48.8908 24.4685 50.5496 24.6036C51.48 25.9429 52.3879 27.3723 53.2622 28.8804C54.114 30.3548 54.8874 31.8517 55.5936 33.3598C54.8874 34.868 54.114 36.3761 53.2734 37.8505ZM56.8938 36.3874C57.4991 37.8955 58.0147 39.4037 58.4406 40.8668C56.9722 41.227 55.4254 41.5309 53.8226 41.7672C54.3718 40.9006 54.9211 40.0114 55.4367 39.0998C55.9523 38.1994 56.4342 37.2878 56.8938 36.3874ZM45.5281 48.3963C44.4857 47.3158 43.4433 46.1116 42.4121 44.7948C43.4209 44.8398 44.4521 44.8735 45.4945 44.8735C46.5481 44.8735 47.5905 44.851 48.6105 44.7948C47.6018 46.1116 46.5593 47.3158 45.5281 48.3963ZM37.1889 41.7672C35.5972 41.5309 34.0616 41.2382 32.5933 40.8781C33.008 39.4262 33.5236 37.9293 34.1065 36.4324C34.566 37.3328 35.048 38.2332 35.5748 39.1336C36.1016 40.034 36.6396 40.9118 37.1889 41.7672ZM45.4721 18.3459C46.5145 19.4264 47.5569 20.6306 48.5881 21.9474C47.5793 21.9024 46.5481 21.8687 45.5057 21.8687C44.4521 21.8687 43.4097 21.8912 42.3897 21.9474C43.3985 20.6306 44.4409 19.4264 45.4721 18.3459ZM37.1777 24.975C36.6284 25.8416 36.0792 26.7308 35.5636 27.6424C35.048 28.5428 34.566 29.4432 34.1065 30.3436C33.5012 28.8354 32.9856 27.3273 32.5597 25.8641C34.028 25.5152 35.5748 25.2113 37.1777 24.975ZM27.0338 39.066C23.0659 37.3666 20.4991 35.1381 20.4991 33.3711C20.4991 31.6041 23.0659 29.3644 27.0338 27.6762C27.9977 27.2597 29.0513 26.8883 30.1386 26.5394C30.7775 28.7454 31.6181 31.0414 32.6605 33.3936C31.6293 35.7346 30.7999 38.0193 30.1722 40.214C29.0625 39.8651 28.0089 39.4825 27.0338 39.066ZM33.0641 55.1492C31.5397 54.2713 30.8784 50.9286 31.394 46.6293C31.5172 45.5713 31.719 44.4571 31.9656 43.3204C34.1625 43.8606 36.5612 44.277 39.0831 44.5471C40.5963 46.6293 42.1655 48.5201 43.746 50.1746C40.0919 53.5848 36.662 55.4531 34.3306 55.4531C33.8262 55.4418 33.4003 55.3405 33.0641 55.1492ZM59.6511 46.573C60.1779 50.8724 59.5278 54.215 58.0147 55.1042C57.6784 55.3068 57.2413 55.3968 56.7257 55.3968C54.4054 55.3968 50.9644 53.5398 47.3103 50.1521C48.8796 48.4976 50.4488 46.618 51.9395 44.5359C54.4727 44.2658 56.8714 43.8493 59.0683 43.2979C59.3261 44.4346 59.5278 45.5263 59.6511 46.573ZM63.9665 39.066C63.0025 39.4825 61.9489 39.8539 60.8617 40.2028C60.2228 37.9968 59.3821 35.7008 58.3397 33.3486C59.3709 31.0076 60.2004 28.7229 60.828 26.5282C61.9377 26.8771 62.9913 27.2597 63.9777 27.6762C67.9456 29.3756 70.5124 31.6041 70.5124 33.3711C70.5012 35.1381 67.9344 37.3778 63.9665 39.066Z" fill="#61DAFB"/>
<path d="M45.4945 38.5135C48.3235 38.5135 50.6168 36.2107 50.6168 33.37C50.6168 30.5294 48.3235 28.2266 45.4945 28.2266C42.6654 28.2266 40.3721 30.5294 40.3721 33.37C40.3721 36.2107 42.6654 38.5135 45.4945 38.5135Z" fill="#61DAFB"/>
</svg>
