<svg width="81" height="73" viewBox="0 0 81 73" fill="none" xmlns="http://www.w3.org/2000/svg">
<path d="M55.5422 0H25.4578C21.7408 0 18.3084 1.9948 16.442 5.20863L1.39982 31.2835C-0.466608 34.5131 -0.466608 38.4869 1.39982 41.7165L16.442 67.7914C18.3084 71.021 21.7408 73 25.4578 73H55.5422C59.2592 73 62.6916 71.0052 64.558 67.7914L79.6002 41.7165C81.4666 38.4869 81.4666 34.5131 79.6002 31.2835L64.5738 5.20863C62.6916 1.97896 59.2592 0 55.5422 0Z" fill="#62A92B"/>
<g clip-path="url(#clip0_157_3632)">
<path d="M58.7766 36.4597L49.5888 27.2719C49.3031 26.9862 48.7976 26.9862 48.5119 27.2719L46.52 29.2638C46.2225 29.5613 46.2225 30.0436 46.52 30.3411L53.1776 36.998L46.5204 43.656C46.2229 43.9535 46.2229 44.4357 46.5204 44.7333L48.5123 46.7252C48.6552 46.868 48.8491 46.9488 49.0509 46.9488C49.2525 46.9488 49.4467 46.868 49.5896 46.7252L58.7766 37.5377C59.0741 37.2399 59.0741 36.7572 58.7766 36.4597Z" fill="white"/>
<path d="M35.4784 43.6563L28.8219 36.9991L35.4795 30.3422C35.6224 30.1994 35.7028 30.0059 35.7028 29.8036C35.7028 29.6017 35.6228 29.4078 35.4795 29.2649L33.4876 27.273C33.3448 27.1302 33.1509 27.0498 32.949 27.0498C32.7471 27.0498 32.5532 27.1302 32.4103 27.273L23.2222 36.4601C22.9246 36.7576 22.9246 37.2399 23.2222 37.5377L32.41 46.7252C32.5528 46.868 32.7467 46.9488 32.9486 46.9488C33.1505 46.9488 33.3444 46.868 33.4872 46.7252L35.4792 44.7332C35.7767 44.4361 35.7767 43.9539 35.4784 43.6563Z" fill="white"/>
<path d="M46.2236 24.1812C46.1268 24.0037 45.9638 23.8719 45.7703 23.8147L44.1555 23.3382C43.7524 23.2186 43.3281 23.4498 43.2092 23.8532L35.7128 49.2399C35.6556 49.4338 35.6777 49.6422 35.7741 49.8193C35.8705 49.9972 36.0339 50.1287 36.2274 50.1862L37.8422 50.6627C37.9142 50.6841 37.987 50.6943 38.0582 50.6943C38.387 50.6943 38.6906 50.4795 38.7885 50.1477L46.2849 24.7606C46.342 24.5667 46.3203 24.3583 46.2236 24.1812Z" fill="white"/>
</g>
<defs>
<clipPath id="clip0_157_3632">
<rect width="36" height="36" fill="white" transform="translate(23 19)"/>
</clipPath>
</defs>
</svg>
