<svg width="19" height="40" viewBox="0 0 19 40" fill="none" xmlns="http://www.w3.org/2000/svg">
<path d="M12.6044 4.97966C10.9828 3.05463 9.58639 1.09952 9.30112 0.693457C9.27109 0.663379 9.22603 0.663379 9.19601 0.693457C8.91072 1.09952 7.51436 3.05463 5.89276 4.97966C-8.02585 22.741 8.08493 34.7275 8.08493 34.7275L8.22005 34.8177C8.34016 36.6675 8.64046 39.3295 8.64046 39.3295H9.24105H9.84164C9.84164 39.3295 10.1419 36.6825 10.2621 34.8177L10.3972 34.7124C10.4122 34.7275 26.523 22.741 12.6044 4.97966ZM9.24105 34.4717C9.24105 34.4717 8.52035 33.8552 8.32515 33.5393V33.5093L9.19601 14.1687C9.19601 14.1085 9.2861 14.1085 9.2861 14.1687L10.1569 33.5093V33.5393C9.96176 33.8552 9.24105 34.4717 9.24105 34.4717Z" fill="#00684A"/>
</svg>
