<svg width="48" height="48" viewBox="0 0 48 48" fill="none" xmlns="http://www.w3.org/2000/svg">
<g clip-path="url(#clip0_446_3581)">
<path fill-rule="evenodd" clip-rule="evenodd" d="M46.8394 10.6743C46.8564 10.7372 46.8651 10.8021 46.8653 10.8673V20.9953C46.8653 21.1253 46.8309 21.2529 46.7656 21.3654C46.7004 21.4779 46.6066 21.5712 46.4936 21.6359L37.9804 26.53V36.2306C37.9804 36.4946 37.8399 36.7383 37.6106 36.8713L19.84 47.086C19.7994 47.1091 19.755 47.1239 19.7106 47.1396C19.694 47.1451 19.6783 47.1553 19.6607 47.1599C19.5365 47.1925 19.4059 47.1925 19.2817 47.1599C19.2613 47.1543 19.2429 47.1433 19.2234 47.1359C19.1828 47.1211 19.1402 47.1082 19.1014 47.086L1.33452 36.8713C1.22165 36.8065 1.12787 36.7132 1.06262 36.6007C0.99738 36.4883 0.96298 36.3606 0.962891 36.2306L0.962891 5.84665C0.962891 5.78019 0.972135 5.71557 0.988775 5.6528C0.994322 5.63157 1.00726 5.61219 1.01466 5.59096C1.02853 5.55219 1.04147 5.5125 1.06181 5.4765C1.07567 5.4525 1.09601 5.43311 1.11265 5.41096C1.13391 5.38142 1.15333 5.35096 1.17829 5.32511C1.19955 5.30388 1.22728 5.28819 1.25132 5.26973C1.27813 5.24757 1.30216 5.22357 1.33267 5.20603L10.2175 0.0986504C10.33 0.034017 10.4575 0 10.5873 0C10.7171 0 10.8446 0.034017 10.9571 0.0986504L19.841 5.20603H19.8428C19.8724 5.2245 19.8974 5.24757 19.9242 5.2688C19.9482 5.28727 19.975 5.30388 19.9963 5.32419C20.0222 5.35096 20.0407 5.38142 20.0628 5.41096C20.0786 5.43311 20.0998 5.4525 20.1128 5.4765C20.134 5.51342 20.146 5.55219 20.1608 5.59096C20.1682 5.61219 20.1812 5.63157 20.1867 5.65373C20.2037 5.71663 20.2124 5.78149 20.2126 5.84665V24.8242L27.6155 20.5679V10.8663C27.6155 10.8017 27.6248 10.7362 27.6414 10.6743C27.6479 10.6522 27.6599 10.6328 27.6673 10.6116C27.6821 10.5728 27.6951 10.5331 27.7154 10.4971C27.7293 10.4731 27.7496 10.4537 27.7653 10.4316C27.7875 10.402 27.806 10.3716 27.8319 10.3457C27.8531 10.3245 27.8799 10.3088 27.904 10.2903C27.9317 10.2682 27.9557 10.2442 27.9853 10.2267L36.8711 5.11927C36.9835 5.05454 37.1111 5.02047 37.2409 5.02047C37.3707 5.02047 37.4982 5.05454 37.6106 5.11927L46.4946 10.2267C46.526 10.2451 46.55 10.2682 46.5778 10.2894C46.6009 10.3079 46.6277 10.3245 46.6489 10.3448C46.6748 10.3716 46.6933 10.402 46.7155 10.4316C46.7321 10.4537 46.7525 10.4731 46.7654 10.4971C46.7867 10.5331 46.7987 10.5728 46.8135 10.6116C46.8218 10.6328 46.8338 10.6522 46.8394 10.6743ZM45.3843 20.5679V12.1457L42.2754 13.9328L37.9804 16.402V24.8242L45.3852 20.5679H45.3843ZM36.5004 35.8033V27.3756L32.2757 29.7848L20.2117 36.6599V45.167L36.5004 35.8033ZM2.44385 7.12511V35.8033L18.7307 45.166V36.6608L10.2221 31.8525L10.2194 31.8506L10.2157 31.8488C10.187 31.8322 10.163 31.8082 10.1362 31.7879C10.113 31.7694 10.0862 31.7546 10.0659 31.7343L10.064 31.7316C10.04 31.7085 10.0234 31.6799 10.003 31.654C9.98454 31.6291 9.96236 31.6079 9.94757 31.582L9.94664 31.5793C9.93 31.5516 9.91983 31.5183 9.90781 31.487C9.8958 31.4593 9.88008 31.4334 9.87269 31.4039C9.86344 31.3688 9.86159 31.331 9.85789 31.295C9.8542 31.2673 9.8468 31.2396 9.8468 31.2119V31.21V11.3814L5.55276 8.91127L2.44385 7.12511ZM10.5882 1.59219L3.18618 5.84665L10.5864 10.1011L17.9875 5.84573L10.5864 1.59219H10.5882ZM14.4376 28.1436L18.7316 25.6753V7.12511L15.6227 8.91219L11.3278 11.3814V29.9316L14.4376 28.1436ZM37.2409 6.6128L29.8398 10.8673L37.2409 15.1217L44.641 10.8663L37.2409 6.6128ZM36.5004 16.402L32.2054 13.9328L29.0965 12.1457V20.5679L33.3906 23.0362L36.5004 24.8242V16.402ZM19.4703 35.3814L30.326 29.1931L35.7525 26.1008L28.357 21.8491L19.8419 26.7442L12.0812 31.2054L19.4703 35.3814Z" fill="#FF2D20"/>
</g>
<defs>
<clipPath id="clip0_446_3581">
<rect width="46.2222" height="48" fill="white" transform="translate(0.962891)"/>
</clipPath>
</defs>
</svg>
