<svg width="28" height="39" viewBox="0 0 28 39" fill="none" xmlns="http://www.w3.org/2000/svg">
<mask id="mask0_417_1542" style="mask-type:luminance" maskUnits="userSpaceOnUse" x="0" y="0" width="28" height="39">
<path d="M24.0619 9.18941C23.978 8.72476 23.5585 8.42907 23.0971 8.49244C22.9293 8.51356 22.7615 8.59804 22.6357 8.72476L18.2731 13.1178L14.8544 6.54936C14.6447 6.12695 14.1413 5.9791 13.7219 6.19031C13.575 6.27479 13.4492 6.40151 13.3653 6.54936L11.4987 10.1398L6.80057 1.31149C6.59083 0.910207 6.06649 0.741244 5.66799 0.973568C5.43728 1.10029 5.26949 1.33262 5.22755 1.58606L0.67627 30.8589L12.82 37.7231C13.575 38.1455 14.5189 38.1455 15.2739 37.7231L27.5225 30.8589L24.0619 9.18941Z" fill="white"/>
</mask>
<g mask="url(#mask0_417_1542)">
<path d="M0.675781 30.8595L5.22706 1.5866C5.28998 1.12195 5.73042 0.805146 6.19184 0.889627C6.44353 0.931868 6.67424 1.10083 6.80008 1.33316L11.4982 10.1615L13.3648 6.57102C13.5746 6.14861 14.0779 6.00077 14.4974 6.21197C14.6442 6.29645 14.7701 6.42317 14.854 6.57102L27.522 30.8595H0.675781Z" fill="#FFA000"/>
<path opacity="0.12" d="M16.1964 1.07955L-6.03564 -0.821289V39.7299L0.675917 30.8593L16.1964 1.07955Z" fill="url(#paint0_linear_417_1542)"/>
<path d="M16.385 19.4537L11.4982 10.1396L0.675781 30.8588L16.385 19.4537Z" fill="#F57C00"/>
<path opacity="0.2" d="M-6.03564 -0.821289H34.2337V39.7299H-6.03564V-0.821289Z" fill="url(#paint1_linear_417_1542)"/>
<path d="M27.522 30.859L24.0404 9.16839C23.9565 8.70374 23.537 8.40805 23.0756 8.47141C22.9078 8.49253 22.74 8.57702 22.6142 8.70374L0.675781 30.859L12.8195 37.7232C13.5746 38.1456 14.5184 38.1456 15.2734 37.7232L27.522 30.859Z" fill="#FFCA28"/>
<path d="M24.0614 9.19038C23.9775 8.72573 23.558 8.43005 23.0966 8.49341C22.9288 8.51453 22.761 8.59901 22.6351 8.72573L18.2726 13.1188L14.8539 6.55033C14.6442 6.12792 14.1408 5.98008 13.7214 6.19129C13.5745 6.27577 13.4487 6.40249 13.3648 6.55033L11.4982 10.1408L6.80006 1.31247C6.59032 0.911183 6.06598 0.74222 5.66748 0.974545C5.43677 1.10127 5.26898 1.33359 5.22704 1.58704L0.67576 30.8599H0.654785L0.67576 30.881L0.801602 30.9444L18.2726 13.33L22.6351 8.93694C22.9707 8.59901 23.4951 8.59901 23.8306 8.93694C23.9565 9.06366 24.0404 9.2115 24.0614 9.40159L27.501 30.881L27.543 30.8599L24.0614 9.19038ZM0.717707 30.8177L5.22704 1.79824C5.28996 1.33359 5.7304 1.01679 6.19182 1.10127C6.44351 1.14351 6.67422 1.31247 6.80006 1.5448L11.4982 10.3731L13.3648 6.78266C13.5745 6.36025 14.0779 6.21241 14.4974 6.42361C14.6442 6.50809 14.77 6.63481 14.8539 6.78266L18.2097 13.2033L0.717707 30.8177Z" fill="white" fill-opacity="0.2"/>
<path opacity="0.2" d="M15.2734 37.512C14.5184 37.9344 13.5746 37.9344 12.8195 37.512L0.696755 30.6689L0.675781 30.859L12.8195 37.7232C13.5746 38.1456 14.5184 38.1456 15.2734 37.7232L27.522 30.859L27.501 30.6689L15.2734 37.512Z" fill="#A52714"/>
<path d="M24.0614 9.19038C23.9775 8.72573 23.558 8.43005 23.0966 8.49341C22.9288 8.51453 22.761 8.59901 22.6352 8.72573L18.2727 13.1188L14.854 6.55033C14.6442 6.12793 14.1408 5.98008 13.7214 6.19129C13.5746 6.27577 13.4487 6.40249 13.3648 6.55033L11.4982 10.1408L6.80008 1.31247C6.59034 0.911183 6.066 0.74222 5.6675 0.974545C5.43679 1.10127 5.26901 1.33359 5.22706 1.58704L0.675781 30.8599L12.8195 37.7241C13.5746 38.1465 14.5184 38.1465 15.2734 37.7241L27.522 30.8599L24.0614 9.19038Z" fill="url(#paint2_linear_417_1542)"/>
</g>
<defs>
<linearGradient id="paint0_linear_417_1542" x1="5.90714" y1="20.8388" x2="4.22425" y2="19.9656" gradientUnits="userSpaceOnUse">
<stop stop-color="#A52714"/>
<stop offset="0.4" stop-color="#A52714" stop-opacity="0.5"/>
<stop offset="0.8" stop-color="#A52714" stop-opacity="0"/>
</linearGradient>
<linearGradient id="paint1_linear_417_1542" x1="13.038" y1="18.3807" x2="12.2819" y2="17.6299" gradientUnits="userSpaceOnUse">
<stop stop-color="#A52714" stop-opacity="0.8"/>
<stop offset="0.5" stop-color="#A52714" stop-opacity="0.21"/>
<stop offset="1" stop-color="#A52714" stop-opacity="0"/>
</linearGradient>
<linearGradient id="paint2_linear_417_1542" x1="-0.0469861" y1="7.41048" x2="28.1875" y2="35.4488" gradientUnits="userSpaceOnUse">
<stop stop-color="white" stop-opacity="0.1"/>
<stop offset="1" stop-color="white" stop-opacity="0"/>
</linearGradient>
</defs>
</svg>
