<svg width="35" height="39" viewBox="0 0 35 39" fill="none" xmlns="http://www.w3.org/2000/svg">
<path d="M17.1383 38.7836C16.6087 38.7836 16.1144 38.6415 15.6555 38.3929L10.96 35.5871C10.254 35.1965 10.607 35.0545 10.8189 34.9834C11.7721 34.6637 11.9485 34.5927 12.937 34.0245C13.043 33.9535 13.1843 33.9889 13.2902 34.0599L16.8913 36.2265C17.0324 36.2975 17.2088 36.2975 17.3148 36.2265L31.4015 28.0223C31.5417 27.9513 31.6137 27.8093 31.6137 27.6318V11.2591C31.6137 11.0814 31.5417 10.9394 31.4015 10.8684L17.3148 2.69983C17.1736 2.6288 16.997 2.6288 16.8913 2.69983L2.80487 10.8684C2.66352 10.9394 2.59303 11.117 2.59303 11.2591V27.6318C2.59303 27.7738 2.66352 27.9513 2.80487 28.0223L6.65299 30.2597C8.73593 31.3253 10.0422 30.0823 10.0422 28.8392V12.6796C10.0422 12.4665 10.2186 12.2535 10.4659 12.2535H12.2663C12.4781 12.2535 12.69 12.4311 12.69 12.6796V28.8392C12.69 31.6448 11.1719 33.2786 8.52409 33.2786C7.71217 33.2786 7.07666 33.2786 5.27605 32.3907L1.56909 30.2597C0.651257 29.7271 0.0864258 28.7326 0.0864258 27.6672V11.2945C0.0864258 10.2291 0.651257 9.23477 1.56909 8.70198L15.6555 0.498025C16.5381 0.000658456 17.7384 0.000658456 18.621 0.498025L32.708 8.70198C33.6251 9.23477 34.1897 10.2291 34.1897 11.2945V27.6672C34.1897 28.7326 33.6251 29.7271 32.708 30.2597L18.621 38.4639C18.1973 38.6415 17.6679 38.7836 17.1383 38.7836Z" fill="#5FA04E"/>
<path d="M21.5353 27.5793C15.3863 27.5793 14.1216 24.7177 14.1216 22.2853C14.1216 22.0707 14.2971 21.8561 14.543 21.8561H16.37C16.5808 21.8561 16.7565 21.9991 16.7565 22.2138C17.0375 24.1095 17.8456 25.0395 21.5702 25.0395C24.5212 25.0395 25.7864 24.36 25.7864 22.7504C25.7864 21.8202 25.4339 21.1405 20.8319 20.6756C17.0024 20.2821 14.6134 19.4237 14.6134 16.3116C14.6134 13.4143 17.0024 11.6973 21.0076 11.6973C25.5055 11.6973 27.7182 13.2712 27.9992 16.7051C27.9992 16.8123 27.9643 16.9197 27.8945 17.027C27.8229 17.0985 27.7182 17.1702 27.6117 17.1702H25.7497C25.5753 17.1702 25.399 17.027 25.3641 16.8482C24.9417 14.8809 23.8528 14.2369 20.9725 14.2369C17.7402 14.2369 17.3537 15.3816 17.3537 16.2401C17.3537 17.2774 17.8104 17.5994 22.167 18.1717C26.4879 18.744 28.5262 19.5667 28.5262 22.643C28.5262 25.7907 25.9609 27.5793 21.5353 27.5793Z" fill="#5FA04E"/>
</svg>
